<?xml version="1.0" standalone="no"?>
<!DOCTYPE svg PUBLIC "-//W3C//DTD SVG 20010904//EN"
 "http://www.w3.org/TR/2001/REC-SVG-20010904/DTD/svg10.dtd">
<svg version="1.0" xmlns="http://www.w3.org/2000/svg"
 width="1280.000000pt" height="720.000000pt" viewBox="0 0 1280.000000 720.000000"
 preserveAspectRatio="xMidYMid meet">
<metadata>
Created by potrace 1.15, written by Peter Selinger 2001-2017
</metadata>
<g transform="translate(0.000000,720.000000) scale(0.100000,-0.100000)"
fill="#000000" stroke="none">
<path d="M6772 5123 c-12 -2 -27 -13 -33 -24 -7 -14 -9 -271 -6 -837 4 -870 2
-819 52 -967 66 -193 259 -397 468 -495 132 -61 243 -83 417 -82 128 0 217 8
235 22 6 4 28 10 51 13 100 16 266 114 379 224 120 117 165 186 220 338 28 77
48 426 25 449 -5 5 -10 22 -10 38 0 15 -5 40 -11 55 -6 15 -15 37 -19 48 -37
99 -94 189 -165 260 -54 54 -133 125 -139 125 -4 0 -23 12 -44 28 -33 23 -99
56 -187 93 -88 37 -211 51 -520 58 l-290 6 -3 316 c-2 290 -4 318 -20 325 -19
8 -364 15 -400 7z m978 -1088 c25 -4 49 -11 54 -16 6 -5 18 -9 27 -9 60 0 224
-133 260 -210 15 -33 22 -48 48 -113 22 -56 8 -213 -22 -243 -4 -4 -7 -14 -7
-23 0 -28 -88 -146 -135 -180 -56 -40 -148 -83 -200 -92 -22 -4 -57 -11 -78
-15 -60 -11 -206 26 -286 73 -97 57 -156 128 -196 238 -24 68 -25 77 -25 331
0 143 3 264 7 268 9 9 488 1 553 -9z"/>
<path d="M1167 4463 c-5 -4 -34 -11 -65 -14 -88 -11 -153 -27 -202 -50 -24
-12 -55 -25 -68 -30 -59 -23 -175 -109 -257 -193 -75 -76 -100 -110 -143 -194
-28 -56 -52 -110 -52 -120 0 -9 -7 -26 -15 -36 -13 -17 -15 -140 -15 -888 l0
-868 26 -10 c34 -13 329 -13 376 0 l38 11 2 317 3 317 300 6 c293 7 390 13
410 29 6 4 28 10 50 13 22 4 59 16 82 27 23 11 46 20 50 20 19 0 158 93 219
147 217 190 322 458 290 738 -11 97 -39 197 -79 279 -29 61 -136 209 -161 223
-8 4 -37 29 -64 56 -28 26 -53 47 -56 47 -4 0 -23 12 -44 28 -33 23 -99 56
-187 93 -28 12 -100 29 -170 41 -82 13 -259 21 -268 11z m173 -429 c74 -9 161
-45 236 -97 40 -28 134 -144 134 -166 0 -6 4 -19 9 -29 54 -100 28 -305 -52
-409 -64 -84 -206 -171 -307 -189 -25 -4 -162 -8 -305 -8 l-260 -1 -3 255 c-3
275 -1 291 51 398 50 103 144 182 272 227 36 13 150 32 165 28 8 -2 35 -6 60
-9z"/>
<path d="M2342 4458 c-9 -9 -12 -215 -12 -864 0 -762 2 -854 16 -868 13 -13
46 -16 208 -16 174 0 195 2 209 18 16 17 17 92 17 868 0 648 -3 853 -12 862
-17 17 -409 17 -426 0z"/>
<path d="M2960 4451 c-18 -35 -11 -51 58 -134 37 -45 74 -92 82 -104 8 -11 36
-47 61 -80 69 -88 310 -401 341 -442 67 -88 65 -74 16 -133 -23 -29 -46 -57
-51 -63 -7 -10 -73 -92 -147 -185 -19 -24 -48 -61 -65 -81 -80 -102 -208 -261
-277 -346 -75 -92 -87 -118 -72 -157 5 -14 39 -16 278 -16 313 0 275 -12 371
119 33 45 81 110 107 144 62 81 58 75 98 130 19 26 47 63 62 83 l26 35 29 -36
c15 -20 38 -48 51 -63 13 -15 67 -79 120 -142 53 -63 99 -117 102 -120 3 -3
21 -25 41 -50 20 -25 48 -57 62 -72 l26 -28 275 0 c269 0 276 0 286 21 17 31
5 63 -44 116 -72 80 -150 168 -176 199 -39 46 -214 246 -446 512 l-46 52 28
38 c16 20 72 89 125 152 146 172 272 323 289 344 8 10 58 68 110 128 122 142
116 132 104 165 l-9 28 -272 3 -271 2 -23 -32 c-13 -18 -59 -77 -103 -130 -45
-53 -118 -142 -164 -197 -45 -56 -86 -101 -90 -101 -4 1 -31 33 -59 73 -29 40
-105 143 -169 230 l-117 157 -268 0 c-255 0 -269 -1 -279 -19z"/>
<path d="M5537 4464 c-4 -4 -29 -11 -55 -15 -118 -18 -228 -63 -342 -140 -144
-96 -298 -291 -339 -429 -7 -25 -17 -56 -21 -70 -25 -77 -31 -266 -13 -370 40
-223 198 -447 405 -576 48 -30 90 -54 94 -54 3 0 29 -11 58 -24 126 -58 232
-67 783 -72 475 -5 483 -4 503 16 19 19 20 31 20 453 0 543 -7 605 -87 777
-83 176 -248 336 -443 428 -61 29 -89 38 -200 64 -54 13 -352 22 -363 12z
m273 -429 c57 -13 168 -75 223 -125 57 -52 101 -128 119 -205 6 -28 13 -162
15 -302 l4 -253 -287 0 c-185 0 -300 4 -323 11 -147 46 -245 126 -307 250 -35
71 -37 79 -38 180 0 58 4 117 10 130 61 138 133 223 220 263 22 10 52 24 68
32 16 8 39 14 50 14 12 0 28 5 36 10 16 11 151 7 210 -5z"/>
<path d="M9487 4464 c-4 -4 -26 -11 -49 -15 -237 -43 -451 -185 -585 -386
-100 -150 -136 -271 -136 -463 -1 -168 22 -264 100 -413 45 -85 195 -246 290
-309 130 -87 230 -124 408 -150 102 -15 1020 -22 1045 -8 20 11 21 17 17 498
-4 511 -9 573 -51 685 -72 191 -269 397 -462 482 -22 9 -48 21 -59 26 -19 8
-44 15 -155 41 -52 13 -352 22 -363 12z m262 -425 c143 -46 238 -106 293 -187
68 -99 80 -165 85 -459 l4 -243 -292 0 c-272 0 -297 1 -352 21 -178 63 -265
162 -317 361 -28 107 26 270 123 369 55 56 183 129 228 129 13 0 31 5 39 10
21 13 146 12 189 -1z"/>
<path d="M10700 4455 c-18 -21 -9 -1015 10 -1065 7 -19 16 -44 20 -55 5 -11
13 -36 20 -55 33 -97 93 -184 196 -287 77 -77 191 -161 246 -182 13 -5 44 -18
68 -30 82 -38 229 -63 370 -63 161 0 270 22 409 84 24 10 45 17 47 15 7 -7
-34 -96 -67 -144 -46 -66 -84 -98 -166 -139 -96 -49 -134 -56 -298 -61 -93 -3
-142 -8 -147 -16 -4 -7 -8 -94 -8 -193 0 -157 2 -183 17 -195 23 -20 429 -15
452 5 9 7 33 17 55 20 52 10 154 57 235 110 62 41 261 235 261 256 0 5 6 15
13 22 6 7 23 36 36 63 13 28 27 58 32 67 5 10 9 26 9 36 0 9 8 29 18 42 16 23
17 84 20 865 3 601 0 851 -8 878 l-11 37 -203 0 c-155 0 -206 -3 -214 -13 -8
-9 -12 -170 -14 -497 l-3 -485 -34 -67 c-87 -169 -241 -262 -436 -261 -112 0
-163 13 -261 68 -95 53 -148 118 -189 230 l-25 70 0 458 c0 297 -4 465 -10
478 -10 18 -23 19 -219 19 -171 0 -211 -3 -221 -15z"/>
</g>
</svg>
